<?xml version="1.0" encoding="utf-8"?>
<svg viewBox="0 0 48 48" width="48" height="48" xmlns="http://www.w3.org/2000/svg">
  <path d="M 14.977 13.095 C 18.631 15.837 22.559 21.397 24.001 24.38 C 25.445 21.397 29.37 15.839 33.024 13.095 C 35.658 11.118 39.928 9.588 39.928 14.457 C 39.928 15.431 39.371 22.629 39.045 23.798 C 37.905 27.86 33.762 28.897 30.078 28.27 C 36.52 29.367 38.161 32.999 34.619 36.633 C 27.897 43.529 24.958 34.9 24.206 32.69 C 24.067 32.284 24.001 32.093 24.001 32.256 C 24.001 32.095 23.935 32.284 23.798 32.69 C 23.043 34.9 20.105 43.529 13.383 36.633 C 9.844 32.999 11.481 29.366 17.921 28.27 C 14.238 28.897 10.094 27.862 8.958 23.798 C 8.63 22.629 8.073 15.429 8.073 14.457 C 8.073 9.588 12.343 11.118 14.977 13.095 Z M 0 48 L 48 48 L 48 0 L 0 0 L 0 48 Z" style=""/>
</svg>