<?xml version="1.0" encoding="utf-8"?>
<svg viewBox="0 0 48 48" width="48" height="48" xmlns="http://www.w3.org/2000/svg">
  <path d="M 0 0 L 48 0 L 48 48 L 31.155 48 C 30.44 47.338 29.873 46.506 29.873 46.169 C 29.873 45.39 29.903 42.813 29.903 39.604 C 29.903 37.358 29.123 35.888 28.284 35.169 C 33.619 34.579 39.223 32.551 39.223 23.341 C 39.223 20.724 38.294 18.586 36.765 16.908 C 37.005 16.302 37.814 13.865 36.526 10.563 C 36.526 10.563 34.518 9.919 29.962 13.02 C 28.044 12.486 26.007 12.223 23.969 12.211 C 21.931 12.223 19.893 12.486 17.975 13.02 C 13.39 9.919 11.382 10.563 11.382 10.563 C 10.093 13.865 10.903 16.302 11.172 16.908 C 9.634 18.586 8.705 20.724 8.705 23.341 C 8.705 32.527 14.301 34.589 19.625 35.189 C 18.94 35.788 18.323 36.845 18.107 38.395 C 16.736 39.009 13.262 40.067 11.124 36.401 C 11.124 36.401 9.86 34.1 7.452 33.932 C 7.452 33.932 5.113 33.902 7.284 35.388 C 7.284 35.388 8.861 36.128 9.952 38.895 C 9.952 38.895 11.358 43.558 18.027 42.111 C 18.037 44.109 18.057 45.618 18.057 46.187 C 18.057 46.561 17.435 47.41 16.679 48 L 0 48 Z"/>
</svg>
