<?xml version="1.0" encoding="utf-8"?>
<svg viewBox="0 0 48 48" width="48" height="48" xmlns="http://www.w3.org/2000/svg">
  <path d="M 0 0 L 48 0 L 48 48 L 0 48 Z M 34.878 12.536 L 32.82 14.079 L 24 20.696 L 15.181 14.081 L 13.122 12.536 C 10.942 10.9 7.83 12.457 7.83 15.182 L 7.83 33.924 C 7.829 35.142 8.817 36.131 10.035 36.131 L 15.181 36.131 L 15.181 23.635 L 24 30.251 L 32.82 23.635 L 32.82 36.129 L 37.966 36.129 C 39.184 36.129 40.17 35.142 40.17 33.924 L 40.17 15.182 C 40.17 12.457 37.057 10.902 34.878 12.536 Z"/>
</svg>
