<?xml version="1.0" encoding="utf-8"?>
<svg viewBox="0 0 48 48" width="48" height="48" xmlns="http://www.w3.org/2000/svg">
  <path d="M 24 8.544 C 28.814 8.543 32.043 8.572 36.701 8.734 C 38.201 9.624 41.154 13.018 41.182 13.906 L 41.182 15.38 C 41.182 17.245 39.436 18.888 37.856 18.888 C 35.953 18.888 34.369 17.31 34.369 15.439 C 34.369 17.31 32.837 18.888 30.934 18.888 C 29.031 18.888 27.55 17.31 27.55 15.439 C 27.55 17.31 25.924 18.888 24.02 18.888 L 23.985 18.888 C 22.082 18.888 20.454 17.31 20.454 15.439 C 20.454 17.31 18.974 18.888 17.072 18.888 C 15.168 18.888 13.636 17.31 13.636 15.439 C 13.636 17.31 12.052 18.888 10.147 18.888 C 8.566 18.888 6.819 17.247 6.819 15.38 L 6.819 13.906 C 6.848 13.015 9.797 9.624 11.3 8.734 C 12.625 8.621 19.187 8.544 24 8.544 Z M 20.432 18.014 C 20.613 18.33 20.838 18.622 21.097 18.877 C 21.844 19.604 22.847 20.012 23.889 20.011 L 24.119 20.011 C 25.162 20.011 26.163 19.603 26.91 18.874 C 27.171 18.619 27.393 18.328 27.574 18.013 C 27.756 18.328 27.981 18.619 28.244 18.874 C 28.962 19.577 29.945 20.01 31.032 20.01 C 32.076 20.01 33.078 19.602 33.824 18.873 C 34.085 18.619 34.282 18.343 34.464 18.029 C 34.644 18.347 34.896 18.619 35.161 18.873 C 35.905 19.603 36.908 20.011 37.953 20.011 C 38.082 20.011 38.218 19.974 38.329 19.937 C 38.482 21.529 38.546 23.052 38.57 24.161 L 38.57 24.166 L 38.577 25.837 C 38.548 29.179 38.906 36.668 37.102 38.506 C 34.309 39.156 29.164 39.457 24.002 39.457 C 18.841 39.454 13.696 39.157 10.902 38.507 C 9.096 36.666 9.455 29.177 9.426 25.836 L 9.435 24.165 L 9.435 24.158 C 9.458 23.049 9.523 21.527 9.676 19.935 C 9.785 19.973 9.922 20.008 10.054 20.008 C 11.097 20.008 12.1 19.6 12.844 18.87 C 13.107 18.615 13.36 18.343 13.541 18.025 C 13.721 18.34 13.92 18.615 14.18 18.87 C 14.926 19.6 15.928 20.008 16.972 20.008 C 18.056 20.008 19.044 19.571 19.76 18.87 C 20.023 18.615 20.247 18.324 20.43 18.009 Z M 17.561 21.719 C 17.023 21.719 14.876 21.719 13.379 25.92 L 11.773 31.686 C 10.582 35.974 12.154 36.079 14.116 36.085 C 17.023 35.976 18.633 33.864 18.633 31.752 C 20.244 32.014 22.122 32.149 24 32.149 C 25.879 32.148 27.758 32.014 29.368 31.752 C 29.368 33.864 30.979 35.976 33.886 36.083 C 35.847 36.08 37.419 35.976 36.228 31.688 L 34.62 25.92 C 33.125 21.719 30.978 21.719 30.439 21.719 C 29.303 21.723 28.292 21.719 27.043 23.085 C 26.059 22.98 25.031 22.93 24 22.93 C 22.971 22.929 21.941 22.98 20.958 23.085 C 19.707 21.719 18.698 21.723 17.561 21.719 Z M 24 25.021 C 24 25.021 27.063 27.833 27.614 28.831 L 25.61 28.752 L 25.61 30.5 C 25.61 30.583 24.804 30.547 24 30.51 C 23.194 30.547 22.392 30.581 22.392 30.501 L 22.392 28.753 L 20.389 28.834 C 20.937 27.834 23.997 25.025 24 25.022 Z M 0 48 L 48 48 L 48 0 L 0 0 Z"/>
</svg>
