<?xml version="1.0" encoding="utf-8"?>
<svg viewBox="0 0 48 48" width="48" height="48" xmlns="http://www.w3.org/2000/svg">
  <path d="M 0 0 L 48 0 L 48 48 L 0 48 Z M 42.145 24.001 C 42.144 19.546 38.534 15.936 34.08 15.936 L 27.969 15.936 C 29.368 16.977 30.5 18.353 31.211 19.968 L 34.079 19.967 C 36.304 19.968 38.113 21.776 38.112 24 C 38.113 26.223 36.304 28.032 34.08 28.031 L 26.015 28.031 C 23.793 28.031 21.983 26.224 21.984 24 C 21.983 23.303 22.176 22.658 22.49 22.087 C 22.323 22.042 22.161 21.984 21.983 21.983 L 18.235 21.984 C 18.07 22.631 17.951 23.3 17.95 24 C 17.951 28.453 21.562 32.064 26.014 32.065 L 34.08 32.066 C 38.534 32.065 42.144 28.455 42.145 24.001 Z M 16.788 28.031 L 13.918 28.032 C 11.696 28.032 9.887 26.223 9.885 24 C 9.886 21.776 11.695 19.967 13.917 19.968 L 21.983 19.968 C 24.208 19.968 26.016 21.775 26.015 24 C 26.015 24.695 25.822 25.34 25.512 25.912 C 25.678 25.957 25.837 26.017 26.016 26.016 L 29.763 26.017 C 29.931 25.369 30.048 24.701 30.046 24 C 30.047 19.547 26.436 15.936 21.98 15.935 L 13.919 15.936 C 9.464 15.936 5.855 19.545 5.855 24 C 5.855 28.454 9.465 32.065 13.919 32.064 L 20.03 32.064 C 18.629 31.024 17.497 29.647 16.788 28.031 Z"/>
</svg>
