<?xml version="1.0" encoding="utf-8"?>
<svg viewBox="0 0 48 48" width="48" height="48" xmlns="http://www.w3.org/2000/svg">
  <path d="M 31.591 37.112 L 31.591 28.473 C 31.591 26.413 31.549 23.761 28.718 23.761 C 25.843 23.761 25.404 26.003 25.404 28.321 L 25.404 37.112 L 19.89 37.112 L 19.89 19.346 L 25.187 19.346 L 25.258 21.768 C 25.998 20.371 27.798 18.897 30.487 18.897 C 36.074 18.897 37.107 22.574 37.107 27.361 L 37.107 37.112 Z M 13.663 16.915 C 11.888 16.915 10.462 15.478 10.462 13.711 C 10.462 11.946 11.889 10.51 13.663 10.51 C 15.432 10.51 16.865 11.946 16.865 13.711 C 16.865 15.478 15.43 16.915 13.663 16.915 Z M 16.428 37.112 L 10.898 37.112 L 10.898 19.346 L 16.428 19.346 Z M 0 48 L 48 48 L 48 0 L 0 0 Z"/>
</svg>
