<?xml version="1.0" encoding="utf-8"?>
<svg viewBox="0 0 48 48" width="48" height="48" xmlns="http://www.w3.org/2000/svg">
  <path d="M 0 0 L 48 0 L 48 48 L 0 48 L 0 0 Z M 39.786 16.632 C 39.296 13.02 36.12 10.173 32.355 9.621 C 31.719 9.527 29.312 9.188 23.737 9.188 L 23.695 9.188 C 18.119 9.188 16.921 9.527 16.287 9.621 C 12.626 10.158 9.283 12.716 8.472 16.371 C 8.084 18.171 8.042 20.168 8.113 21.998 C 8.217 24.623 8.236 27.244 8.477 29.859 C 8.643 31.596 8.933 33.319 9.346 35.014 C 10.117 38.149 13.237 40.756 16.295 41.819 C 19.568 42.929 23.089 43.112 26.461 42.352 C 26.832 42.266 27.199 42.167 27.562 42.053 C 28.382 41.795 29.342 41.507 30.048 40.998 C 30.067 40.984 30.078 40.962 30.08 40.938 L 30.08 38.404 C 30.08 38.381 30.07 38.36 30.052 38.346 C 30.034 38.332 30.01 38.327 29.987 38.332 C 27.826 38.843 25.612 39.1 23.39 39.096 C 19.565 39.096 18.538 37.297 18.243 36.549 C 18.006 35.903 17.856 35.227 17.796 34.541 C 17.794 34.492 17.841 34.453 17.888 34.465 C 20.014 34.974 22.192 35.23 24.378 35.23 C 24.904 35.23 25.428 35.23 25.954 35.216 C 28.153 35.155 30.471 35.043 32.634 34.625 C 32.687 34.614 32.742 34.604 32.788 34.591 C 36.2 33.941 39.447 31.901 39.778 26.74 C 39.789 26.537 39.82 24.61 39.82 24.4 C 39.823 23.683 40.054 19.315 39.786 16.632 Z M 34.535 29.514 L 30.947 29.514 L 30.947 20.802 C 30.947 18.969 30.177 18.034 28.607 18.034 C 26.884 18.034 26.021 19.141 26.021 21.326 L 26.021 26.094 L 22.454 26.094 L 22.454 21.325 C 22.454 19.139 21.59 18.033 19.865 18.033 C 18.307 18.033 17.528 18.969 17.525 20.802 L 17.525 29.514 L 13.943 29.514 L 13.943 20.539 C 13.943 18.704 14.415 17.247 15.359 16.168 C 16.334 15.089 17.612 14.537 19.198 14.537 C 21.035 14.537 22.423 15.238 23.348 16.636 L 24.242 18.121 L 25.136 16.636 C 26.06 15.236 27.447 14.537 29.283 14.537 C 30.866 14.537 32.145 15.091 33.121 16.168 C 34.067 17.247 34.539 18.704 34.539 20.539 L 34.535 29.514 Z"/>
</svg>