<?xml version="1.0" encoding="utf-8"?>
<svg viewBox="0 0 48 48" width="48" height="48" xmlns="http://www.w3.org/2000/svg">
  <g transform="matrix(1.084991, 0, 0, 1.084991, -129.262573, 9.894032)">
    <rect x="138.097" y="-2.799" width="6.32" height="6.32" style="opacity: 0.25"/>
    <rect x="150.737" y="9.841" width="6.32" height="6.32" style="opacity: 0.5"/>
    <rect x="144.417" y="16.161" width="6.32" height="6.32" style="opacity: 0.25"/>
    <rect x="138.097" y="22.481" width="6.32" height="6.32" style="opacity: 0"/>
    <rect x="131.777" y="16.161" width="6.32" height="6.32" style="opacity: 0.5"/>
    <rect x="131.777" y="3.521" width="6.32" height="6.32" style="opacity: 0.5"/>
    <path d="M 144.417 22.481 L 138.097 22.481 L 138.097 16.161 L 131.777 16.161 L 131.777 9.841 L 138.097 9.841 L 138.097 3.521 L 144.417 3.521 L 144.417 9.841 L 150.737 9.841 L 150.737 16.161 L 144.417 16.161 L 144.417 22.481 Z"/>
    <rect x="125.457" y="9.841" width="6.32" height="6.32" style="opacity: 0"/>
    <rect x="144.417" y="3.521" width="6.32" height="6.32" style="opacity: 0"/>
    <path d="M 138.097 22.481 L 138.097 28.801 L 144.417 28.801 L 144.417 22.481 L 150.737 22.481 L 150.737 16.161 L 157.057 16.161 L 157.057 9.841 L 150.737 9.841 L 150.737 3.521 L 144.417 3.521 L 144.417 -2.799 L 138.097 -2.799 L 138.097 3.521 L 131.777 3.521 L 131.777 9.841 L 125.457 9.841 L 125.457 16.161 L 131.777 16.161 L 131.777 22.481 L 138.097 22.481 Z M 163.377 35.121 L 119.137 35.121 L 119.137 -9.119 L 163.377 -9.119 L 163.377 35.121 Z"/>
  </g>
</svg>
