<?xml version="1.0" encoding="utf-8"?>
<svg viewBox="0 0 48 48" width="48" height="48" xmlns="http://www.w3.org/2000/svg">
  <path d="M 0 0 L 48 0 L 48 48 L 0 48 L 0 0 Z M 37.818 37.818 C 37.818 22.659 25.342 10.184 10.184 10.184 L 10.184 15.71 C 22.312 15.71 32.29 25.689 32.29 37.818 L 37.818 37.818 Z M 10.184 34.029 C 10.184 36.121 11.876 37.818 13.964 37.818 C 16.055 37.818 17.764 36.117 17.764 34.029 C 17.764 31.939 16.062 30.236 13.973 30.236 C 11.881 30.237 10.184 31.939 10.184 34.029 Z M 10.184 19.499 L 10.184 24.87 C 17.287 24.87 23.13 30.715 23.13 37.818 L 28.502 37.818 C 28.502 27.77 20.232 19.499 10.184 19.499 Z"/>
</svg>
