<?xml version="1.0" encoding="utf-8"?>
<svg viewBox="0 0 48 48" width="48" height="48" xmlns="http://www.w3.org/2000/svg">
  <path d="M 0 0 L 48 0 L 48 48 L 0 48 L 0 0 Z M 26.42 40.088 L 26.659 40.088 C 29.014 40.048 31.647 39.059 32.232 38.206 L 30.682 33.613 C 30.078 33.9 28.932 34.148 28.086 34.175 L 27.965 34.175 C 25.509 34.175 25.027 32.338 25.006 30.996 L 25.006 20.98 L 31.469 20.98 L 31.469 16.108 L 25.031 16.108 L 25.031 7.91 L 20.315 7.91 C 20.238 7.91 20.102 7.979 20.083 8.15 C 19.818 10.662 18.635 15.064 13.768 16.824 L 13.768 20.98 L 17.008 20.98 L 17.008 31.495 C 17.008 35.055 19.606 40.091 26.435 40.091 L 26.42 40.088 Z"/>
</svg>