<?xml version="1.0" encoding="utf-8"?>
<svg viewBox="0 0 48 48" width="48" height="48" xmlns="http://www.w3.org/2000/svg">
  <path d="M 41.373 13.273 C 40.416 14.707 39.21 15.956 37.812 16.962 C 37.834 17.267 37.834 17.571 37.834 17.875 C 37.834 27.269 30.674 38.122 17.567 38.122 C 13.69 38.125 9.892 37.015 6.626 34.924 C 7.192 34.988 7.755 35.021 8.32 35.021 C 11.524 35.024 14.635 33.951 17.154 31.973 C 14.104 31.915 11.427 29.929 10.489 27.026 C 11.551 27.225 12.646 27.183 13.691 26.903 C 10.367 26.23 7.977 23.307 7.978 19.915 L 7.978 19.828 C 8.967 20.378 10.073 20.683 11.204 20.72 C 9.296 19.441 8.036 17.265 8.036 14.789 C 8.029 13.53 8.362 12.292 9 11.206 C 12.514 15.503 17.76 18.348 23.681 18.627 C 23.396 17.406 23.437 16.131 23.801 14.931 C 25.398 9.684 32.074 8.134 35.82 12.138 C 37.444 11.813 38.97 11.228 40.347 10.424 C 39.813 12.073 38.701 13.473 37.215 14.367 C 38.627 14.196 40.005 13.818 41.305 13.245 Z M 0 48 L 48 48 L 48 0 L 0 0 Z"/>
</svg>
